PathFileType	4	(X/Y/Z)	D:\TRACE\v60_Jaco2_6-2-23\BothDRS_Motion2_3-v60.trc
DataRate	CameraRate	NumFrames	NumMarkers	Units	OrigDataRate	OrigDataStartFrame	OrigNumFrames
100.00	100.00	      27	9	mm	100.00	938	      7500
Frame#	Time	front left toe			Front right toe			aft left toe			aft right toe			Arm			FL body			FR body			AL Body			AR Body			
		X1	Y1	Z1	X2	Y2	Z2	X3	Y3	Z3	X4	Y4	Z4	X5	Y5	Z5	X6	Y6	Z6	X7	Y7	Z7	X8	Y8	Z8	X9	Y9	Z9	

938	9.370	-178.09590	-9.11569	-282.59805	171.30682	82.40117	-317.13852	-148.86624	120.40403	342.34137	269.09488	40.54158	296.87692	-15.77935	1179.65417	-505.67331	-97.99727	559.77637	-431.49713	61.82870	560.67792	-448.63583	2.80669	581.55798	508.66272	157.07622	577.60553	493.76379	
939	9.380	-177.94319	-9.51180	-282.62912	166.25273	73.51608	-317.65039	-155.35579	111.23777	341.90646	269.32629	40.74167	296.65945	-16.25373	1179.10010	-505.60046	-99.27309	559.38739	-430.86713	59.79977	559.91327	-448.39151	1.31684	582.13318	509.34808	155.97078	577.69812	494.51215	
940	9.390	-177.82558	-10.11141	-282.55124	161.90009	65.03933	-317.29721	-161.03197	101.23963	342.17078	269.13974	40.82821	296.39218	-17.35687	1178.08130	-505.38962	-100.34431	558.78497	-430.32422	58.62352	559.38550	-447.34238	-0.29831	582.07489	509.86926	154.52042	577.28168	494.81366	
941	9.400	-177.38422	-10.76792	-282.67313	156.62465	55.96090	-316.37814	-165.36009	91.36644	343.69843	269.49673	41.19293	296.31830	-18.23021	1177.71729	-505.32938	-101.63712	558.39581	-429.83542	57.66264	558.69769	-446.96356	-1.21423	581.88257	510.32642	153.07350	577.17181	495.26831	
942	9.410	-177.16020	-10.92984	-282.69693	151.12300	46.67723	-314.70471	-168.95338	82.76783	345.16473	270.22333	41.66376	296.17841	-19.18356	1177.27307	-505.08508	-102.72990	558.06140	-429.13437	56.84481	557.91425	-446.30484	-2.77952	582.34558	510.90500	151.68295	576.96338	496.16537	
943	9.420	-176.93394	-11.43548	-282.99646	148.86832	37.99842	-311.77896	-172.23579	74.33214	346.70282	270.89853	42.18284	296.13318	-19.78944	1176.69812	-504.79599	-103.97300	557.62860	-428.47571	55.85464	557.33167	-445.61600	-4.02815	582.60986	511.46759	150.07816	577.11444	497.12613	
944	9.430	-176.59572	-11.72640	-282.80811	147.26210	29.37631	-308.04480	-174.77673	66.83964	349.43533	271.06268	42.46722	296.09985	-19.65864	1175.84717	-504.77969	-105.47017	557.48907	-427.77829	53.44592	556.42181	-444.04404	-5.74017	582.42700	512.82532	148.30971	576.84076	497.94501	
945	9.440	-176.16360	-12.21986	-282.92197	148.23160	22.42719	-303.98724	-176.66020	59.97598	352.48178	271.13266	42.79956	296.12766	-19.12212	1175.15698	-504.42703	-106.69188	556.61731	-426.75421	52.38840	555.69922	-443.54031	-7.82143	582.84247	513.60040	146.71965	576.90027	498.81540	
946	9.450	-175.61890	-12.75908	-282.96796	147.90973	16.23786	-299.87018	-178.01251	53.70078	356.18765	271.53763	43.39993	296.02795	-18.17680	1174.24451	-503.92905	-107.88593	555.79364	-425.64972	51.87249	555.00006	-442.63770	-9.37812	583.25922	514.63690	144.93484	576.96222	499.86243	
947	9.460	-175.16145	-13.05347	-283.01291	147.47955	9.48555	-296.27045	-178.89819	48.04569	359.20816	271.72644	43.72968	296.04092	-17.96013	1173.58069	-503.59775	-109.24480	555.34039	-424.46231	50.43324	554.02936	-441.38861	-11.18586	583.70361	515.95587	143.23811	577.26526	501.33459	
948	9.470	-174.84375	-13.26265	-283.05389	146.26628	2.89832	-292.69110	-180.54150	49.20197	356.90829	271.84055	43.91781	296.00943	-17.89680	1172.86365	-502.77139	-110.50097	555.09546	-423.32281	48.93400	553.08459	-439.51071	-12.28260	583.93817	517.30029	141.73607	577.73328	502.70755	
949	9.480	-174.43289	-13.54094	-283.06134	145.05022	-4.19856	-288.95593	-180.78029	46.48681	356.77130	272.04663	44.54120	296.12888	-18.60379	1172.08862	-502.50485	-111.14208	554.23956	-421.79752	48.55080	552.22595	-438.20105	-14.43505	586.14948	518.62872	139.94083	578.72211	504.14923	
950	9.490	-174.25403	-13.52181	-282.81143	144.33557	-8.98940	-287.39011	-179.29291	46.72415	358.65433	272.19821	45.02959	296.35034	-19.40636	1171.41724	-502.30664	-111.78271	553.48157	-420.08691	47.74011	551.41577	-436.85986	-15.87926	587.97327	520.27496	138.64485	580.31763	505.73813	
951	9.500	-174.32715	-12.73404	-281.20474	145.24756	-13.32965	-288.10852	-178.61165	45.64535	358.44489	272.48294	46.13460	297.53540	-20.01002	1170.37048	-502.42615	-112.79917	553.37604	-418.52328	46.01353	551.20251	-435.13611	-17.46243	589.12238	521.43848	137.39256	581.47180	507.16879	
952	9.510	-173.60542	-12.92723	-281.48239	147.38913	-12.56800	-289.40833	-178.20998	44.70980	357.86304	271.53857	46.91546	297.70184	-20.38024	1170.11047	-502.33258	-114.37330	554.06604	-417.84698	45.74479	552.07568	-434.02744	-17.94783	589.32544	522.99310	134.82594	582.56586	508.45920	
953	9.520	-172.38503	-9.72382	-281.80161	146.72620	-11.76294	-288.57907	-177.89211	45.34374	358.46625	270.18262	49.18995	298.57526	-21.09167	1170.72375	-501.65015	-114.62729	555.53711	-416.72433	44.72552	553.45667	-432.71405	-18.84632	589.75104	523.56561	135.33163	582.29907	509.40524	
954	9.530	-170.16365	-5.14085	-278.92847	146.16916	-11.26306	-288.50443	-177.59407	44.89036	357.97931	267.09769	51.72602	302.26886	-22.60346	1172.30603	-499.94794	-115.01145	556.98798	-416.55478	44.52182	554.97571	-432.35318	-19.28927	589.02802	523.51245	133.77966	582.62677	510.57544	
955	9.540	-169.25723	1.79665	-274.18509	147.14474	-11.27473	-288.71887	-177.11778	44.96634	357.33026	262.62180	59.09787	306.51431	-24.37165	1174.29541	-498.31812	-115.37630	557.01526	-416.12982	44.87653	555.63068	-432.43356	-20.77736	589.02350	524.40027	133.59491	582.73022	511.01367	
956	9.550	-169.79340	12.72278	-272.55115	148.60240	-11.78145	-289.00259	-175.98512	44.62680	357.50494	259.14828	68.91756	308.16556	-26.41706	1175.96338	-496.72565	-115.22576	556.16595	-415.84818	44.64197	555.43866	-431.74838	-21.95242	589.77869	524.84552	131.39500	583.48303	510.99368	
957	9.560	-168.90497	22.79577	-270.41580	148.92386	-12.37128	-288.98883	-175.48607	44.50716	357.53006	258.32886	81.94598	310.21106	-28.22717	1176.33215	-495.44049	-115.35081	554.99170	-415.35880	43.76499	554.47888	-430.41730	-23.44458	590.33942	525.26746	131.06464	584.20148	511.75400	
958	9.570	-168.75525	35.46719	-270.44080	149.71335	-12.32521	-288.76633	-175.08051	44.34668	357.56683	259.03271	95.71161	310.65649	-29.77463	1175.54858	-494.96222	-114.60258	554.16150	-414.57364	44.39819	553.93011	-430.28757	-23.90650	590.19940	525.95587	129.72345	584.58154	512.31708	
959	9.580	-169.20988	47.73978	-269.71075	150.73209	-12.00102	-288.17639	-174.76640	44.25713	357.58392	259.83203	110.00497	312.59482	-30.72910	1174.19800	-495.74503	-114.84456	553.73041	-414.23636	45.10682	553.61462	-429.45477	-25.46621	590.63159	526.92432	129.01122	584.89594	513.31439	
960	9.590	-171.20589	60.45923	-269.28329	151.12202	-11.98855	-288.25955	-174.06992	44.05930	357.71011	259.64368	124.15963	314.06036	-31.04288	1172.13525	-496.82083	-114.66719	552.56360	-413.66467	44.68427	553.12762	-428.66541	-25.90189	590.63116	527.33728	128.17497	585.02509	514.17920	
961	9.600	-173.80888	72.37472	-268.31384	151.70958	-12.21195	-288.07892	-173.20291	43.87487	357.60880	258.98981	137.82089	316.56671	-31.59775	1170.19116	-497.68005	-113.83536	551.37909	-412.73178	46.21384	552.57422	-428.20361	-26.66861	590.22803	528.00885	127.20940	585.69995	514.83252	
962	9.610	-176.63599	83.88651	-266.63434	153.10715	-12.39988	-287.83496	-172.52054	43.88022	357.60306	257.33429	150.65938	319.00797	-32.98581	1168.53076	-498.31085	-113.80963	549.67377	-412.38388	45.39128	551.35400	-426.90970	-27.66234	591.21790	528.53528	126.77910	586.68921	515.35065	
963	9.620	-178.61243	94.66157	-264.98865	153.84641	-12.22213	-287.74323	-171.46140	43.72327	357.71429	251.42493	161.26695	321.02643	-34.48289	1167.35364	-498.91104	-112.98794	548.35541	-411.59863	45.88348	550.03870	-426.35712	-27.87415	591.96033	529.02356	124.69164	588.34772	515.55450	
964	9.630	-179.99712	103.96400	-263.39349	154.53267	-12.11345	-287.65558	-170.88864	43.77612	357.57870	248.83656	171.38461	323.49396	-36.74678	1166.26404	-499.40887	-112.47288	546.41235	-411.27658	46.46479	548.91241	-425.72656	-28.64791	592.86493	529.32379	125.31367	589.17126	516.19043	
